# xmcd
#
# Track frame offsets:
#	150
#	15727
#	40940
#	65391
#	78303
#	98933
#	124754
#	141992
#	170366
#
# Disc length: 2522 seconds
#
# Revision: 0
# Processed by: cddbd v1.5.2PL0 Copyright (c) Steve Scherf et al.
# Submitted via: EasyCDDAExtractor 2010.6.0.0
#
DISCID=7309d809
DTITLE=Various Artist - Scion CD Sampler Vol.19
DYEAR=2007
DGENRE=Hip-Hop
TTITLE0=The Budos Band (Ft. Wale) - Chicago Falcon (The Washington Sq. Lads Re
TTITLE0=mix)
TTITLE1=Sharon Jones and The Dap Kings - Keep On Looking (Kenny Dope Remix)
TTITLE2=The Dakartis - Eltsuhg Ibal Lasiti (Mad Professor Remix)
TTITLE3=Sharon Jones and The Dap-Kings - Stranded In Your Love (Cool Calm Pete -
TTITLE3=Sweet Nothing Mix)	
TTITLE4=Sugarman Three and Co. (Ft. Charles Bradley) - Take It As It Come (Afrod
TTITLE4=isiac Soundsystem Remix)
TTITLE5=Sharon Jones and The Dap Kings - Take It As It Come (Afrodisiac Soundsys
TTITLE5=tem Remix)
TTITLE6=The Budos Band - T.I.B.W.F (Hank Shocklee Remix)
TTITLE7=Sharon Jones and The Dap Kings - My Man Is A Mean Man (DJ Spinna Remix)
TTITLE8=Sugarman Three and Co. (Ft. Large Professor) - Bosco's Blues (Bull Jun R
TTITLE8=emix)
EXTD=
EXTT0=
EXTT1=
EXTT2=
EXTT3=
EXTT4=
EXTT5=
EXTT6=
EXTT7=
EXTT8=
PLAYORDER=
